<?xml version="1.0" encoding="UTF-8"?>
<svg id="_圖層_1" data-name="圖層 1" xmlns="http://www.w3.org/2000/svg" xmlns:xlink="http://www.w3.org/1999/xlink" viewBox="0 0 946.84 263.58">
  <defs>
    <style>
      .cls-1 {
        fill: url(#_未命名漸層_12);
      }

      .cls-2 {
        fill: #fff;
      }

      .cls-3 {
        filter: url(#drop-shadow-1);
      }

      .cls-4 {
        fill: url(#_未命名漸層_12-2);
      }
    </style>
    <filter id="drop-shadow-1" x="0" y="0" width="946.84" height="263.58" filterUnits="userSpaceOnUse">
      <feOffset dx="6.61" dy="6.61"/>
      <feGaussianBlur result="blur" stdDeviation="4.72"/>
      <feFlood flood-color="#172344" flood-opacity=".75"/>
      <feComposite in2="blur" operator="in"/>
      <feComposite in="SourceGraphic"/>
    </filter>
    <linearGradient id="_未命名漸層_12" data-name="未命名漸層 12" x1="360.45" y1="-26.4" x2="265.13" y2="180.5" gradientUnits="userSpaceOnUse">
      <stop offset="0" stop-color="#f8f4a7"/>
      <stop offset=".46" stop-color="#d4a537"/>
      <stop offset=".77" stop-color="#977226"/>
      <stop offset="1" stop-color="#8d6926"/>
    </linearGradient>
    <linearGradient id="_未命名漸層_12-2" data-name="未命名漸層 12" x1="340.24" y1="-101.72" x2="344.67" y2="159.13" xlink:href="#_未命名漸層_12"/>
  </defs>
  <g class="cls-3">
    <g>
      <path class="cls-2" d="M121.76,43.18c.91,2.73,1.92,6.08,2.83,9.12l35.45.03-.02,19.44h-15.6s0-6.39,0-6.39h-10.53s0,5.16,0,5.16c0,2.13.4,3.24,2.93,3.24,1.82,0,8.41,0,10.53,0,2.94,0,7.6-.3,9.72-.9.3,3.75.7,8.81,1.21,12.25-2.23.81-6.68.91-10.23.9h-11.95c3.34,2.93,7.18,6.98,9,9.92l-4.26,2.12,19.44.02v13.67s-34.75-.03-34.75-.03c6.98,8.92,18.83,13.38,37.56,14.72-3.34,3.44-7.5,10.12-9.43,14.68-19.04-2.65-30.48-8.84-38.57-20.39-6.39,9.51-17.94,16.29-39.72,20.52-1.21-4.15-4.95-10.33-7.99-13.68,20.06-3.22,29.58-8.28,34.35-15.87l-32.2-.03v-13.67s36.37.03,36.37.03c.51-3.85.72-8.2.92-12.96h16.41c-.21,4.57-.51,8.93-1.02,12.98h9.11c-1.82-2.42-4.25-5.16-6.37-7.29l9.93-4.75c-12.66-.21-15.59-4.67-15.58-15.71v-4.96s-9.62,0-9.62,0c-1.23,15.09-5.99,23.59-34.35,27.11-1.01-3.65-4.35-9.22-6.98-12.16,22.18-1.91,25.12-5.95,25.94-14.97h-8.2s0,7.39,0,7.39h-14.79s.02-20.47.02-20.47l35.34.03-1.31-5.37,16.41-3.73Z"/>
      <path class="cls-2" d="M234.06,59.28v-14.28s12.98.01,12.98.01v14.28s9.41,0,9.41,0l2.13-.4,9.21,1.73c-1.12,8-3.05,17.01-4.98,22.78l-11.14-2.44c.61-2.43,1.12-5.57,1.63-8.91h-6.28s-.01,12.05-.01,12.05h9.01s2.23-.4,2.23-.4l8.4,2.84c-2.64,13.67-7.21,24.7-13.6,33.61,4.76,3.75,10.22,6.9,16.3,9.03-3.04,2.63-7.2,8.1-9.12,11.74-6.18-2.74-11.54-6.29-16.4-10.55-4.76,4.25-10.13,7.79-16.11,10.62-1.42-2.84-4.25-7.09-6.68-9.93-1.42,3.65-3.04,6.99-4.97,10.02-2.23-2.13-7.79-5.78-10.83-7.1,1.01-1.62,1.93-3.24,2.74-4.96h-15.39s0,7.28,0,7.28h-12.46s.02-28.57.02-28.57l-3.14,3.74c-.4-3.95-2.93-13.57-4.95-17.93,6.18-7.79,10.24-19.13,12.79-31.38h-10.03s.01-13.28.01-13.28l36.26.03v13.27s-11.86,0-11.86,0c-1.42,6.18-3.15,12.45-5.28,18.53h15.8s-.04,44.17-.04,44.17c4.47-12.15,4.88-26.53,4.89-37.67l.02-27.95,19.44.02ZM192.59,116.26h4.56s.02-22.78.02-22.78h-4.56s-.02,22.78-.02,22.78ZM235.02,120.75c-3.34-4.46-6.27-9.32-8.7-14.69-.82,7.8-2.24,15.9-4.68,23.19,4.96-2.12,9.42-4.95,13.38-8.5ZM227.16,72.03v12.05s6.88,0,6.88,0v-12.05s-6.88,0-6.88,0ZM235.24,96.65c2.22,5.07,5.06,9.93,8.49,14.19,2.94-4.25,5.38-9.01,7.2-14.17h-15.7Z"/>
      <path class="cls-2" d="M390.54,45.13l-.02,18.33h9.42s-.01,13.58-.01,13.58h-9.42s-.01,12.55-.01,12.55l9.42-2.22,1.71,13.47-11.14,2.83-.02,22.28c0,6.79-1.12,10.33-4.97,12.55-3.85,2.23-9.12,2.63-16.51,2.62-.4-3.75-2.22-9.72-3.94-13.47,3.54.21,7.7.21,9.01.21,1.42-.1,1.92-.5,1.93-1.92l.02-18.63-10.13,2.42-3.33-14.08,13.47-2.72v-15.9s-11.73,0-11.73,0v-13.57s11.76,0,11.76,0l.02-18.33h14.48ZM454.5,93.79l-.04,47.09h-14.58s0-3.76,0-3.76l-21.98-.02v4.25s-13.88-.01-13.88-.01l.04-47.6,50.43.04ZM453.93,59.26c-10.43,4.24-23.2,7.68-34.85,10v2.63c0,3.95.91,4.36,6.48,4.36,2.53,0,11.75,0,14.79.01,4.66,0,5.47-1.51,6.19-11.03,3.14,2.23,9.31,4.46,13.26,5.28-1.73,14.89-5.89,18.93-18.35,18.92-3.34,0-14.38-.01-17.52-.02-15.6-.01-19.54-4.17-19.53-17.44l.02-26.94h14.68s-.01,12.06-.01,12.06c9.02-2.32,17.83-5.45,24.01-8.49l10.83,10.64ZM417.92,125.56l21.98.02v-4.46s-21.97-.02-21.97-.02v4.46ZM439.91,109.88v-4.15s-21.97-.02-21.97-.02v4.15s21.97.02,21.97.02Z"/>
      <path class="cls-2" d="M560.86,77.17c-1.63,14.68-4.38,27.14-9.25,37.56,3.84,6.38,8.7,11.65,14.98,15.31-3.14,2.63-7.5,8.1-9.53,11.74-5.47-3.65-10.02-8.31-13.66-13.68-4.46,5.36-9.73,10.02-16.32,13.86-.71-1.82-3.34-6.08-5.56-9.22l-7.91,7.89c-2.73-1.93-6.38-4.16-10.53-6.39-6.28,3.64-14.69,5.86-25.63,7.57-.71-3.75-2.93-8.41-4.95-11.14,6.99-.5,12.66-1.31,17.32-2.72-4.05-1.73-8.61-3.15-13.57-4.57,1.62-2.33,2.74-4.15,4.56-7.09h-10.43s0-10.44,0-10.44h16.3c.41-.8,1.01-1.81,1.42-2.62h-13.98s.02-19.96.02-19.96h17.32s0-2.31,0-2.31h-15.49s0-10.65,0-10.65h-6.18s0-10.23,0-10.23h6.18s0-10.53,0-10.53h15.49s0-4.34,0-4.34h12.46s0,4.36,0,4.36h16.51s0,10.55,0,10.55h6.38s0,10.23,0,10.23h-6.38s0,10.63,0,10.63h-16.51s0,2.32,0,2.32l18.33.02v2.13c2.23-4.05,4.06-9.42,5.58-15.09,2.24-8.71,3.76-18.23,4.48-25.21l13.97,2.04c-.71,5.57-1.63,11.04-2.75,16.4l22.48.02v13.57s-5.18,0-5.18,0ZM486.1,94.73h5.37s0-2.83,0-2.83h-5.37s0,2.83,0,2.83ZM491.49,71.95v-2.43s-3.54,0-3.54,0v2.43s3.54,0,3.54,0ZM487.96,58.48v2.43s3.54,0,3.54,0v-2.43s-3.54,0-3.54,0ZM494.08,116.31c-.3.61-.81,1.32-1.01,1.72,2.63,1.02,5.37,2.03,8.1,3.15,1.22-1.42,2.23-3.04,3.24-4.86h-10.33ZM517.48,116.33c-1.22,4.05-2.84,7.09-5.07,9.92l6.98,3.65c7.09-3.84,12.87-9,16.93-15.18-2.02-4.96-3.64-10.33-5.05-16.01-.91,1.62-1.93,3.24-3.04,4.66-.81-1.22-3.44-4.26-5.97-6.99v6.89s-20.67-.02-20.67-.02c-.51,1.11-.81,1.72-1.32,2.63l26.13.02v10.43s-8.92,0-8.92,0ZM503.93,91.91v2.84s5.67,0,5.67,0v-2.84s-5.67,0-5.67,0ZM507.79,71.96v-2.43s-3.85,0-3.85,0v2.43s3.85,0,3.85,0ZM503.96,58.49v2.43s3.85,0,3.85,0v-2.43s-3.85,0-3.85,0ZM540.2,77.15c0,.1-.1.3-.1.4,1.01,6.69,2.22,13.07,3.93,19.04,1.52-5.87,2.64-12.35,3.26-19.44h-7.09Z"/>
      <path class="cls-2" d="M604.63,49.16l2.03-.5,9.62,5.38c-2.44,8.71-5.48,19.03-8.12,26.73,5.46,7.8,6.47,14.89,6.46,20.67,0,7.19-1.43,11.65-4.87,14.28-1.72,1.31-3.75,2.02-6.08,2.43-1.72.3-4.05.3-6.48.3,0-3.54-1.11-9.01-3.03-12.56,1.42.1,2.53.2,3.54.1.91,0,1.82-.2,2.53-.71,1.01-.81,1.52-2.73,1.52-5.57,0-4.46-.9-10.84-5.86-17.42,1.52-5.67,3.35-13.57,4.68-20.05h-7.29s-.07,78.89-.07,78.89h-12.76s.08-91.97.08-91.97l24.1.02ZM612.66,130.59c2.43-1.52,5.27-4.76,5.27-9.72l.06-71.7,46.89.04-.04,47.9h-3.34s9.21,10.13,9.21,10.13c-4.15,3.14-8.61,6.47-12.46,9.21,3.84,5.17,8.7,9.43,14.67,12.27-3.24,2.83-7.7,8.7-9.83,12.65-8.2-4.87-14.17-11.86-18.62-20.68-.1,4.15.09,10.03.6,13.27-19.35,4.64-23.6,6.26-26.24,7.98-1.01-3.24-4.04-8.92-6.17-11.35ZM632.34,97.08l-.02,25.93,12.05-2.42c-3.44-6.89-6.06-14.79-8.08-23.5h-3.95ZM632.35,78.85v5.67s18.22.02,18.22.02v-5.67s-18.22-.02-18.22-.02ZM650.6,61.75l-18.23-.02v5.37s18.22.02,18.22.02v-5.37ZM652.08,105.71c3.14-2.73,6.49-5.97,8.82-8.6h-11.95c.91,2.93,1.92,5.87,3.13,8.6Z"/>
      <path class="cls-2" d="M703.27,49.74c-.61,2.84-1.22,5.67-2.03,8.5h4.15s.01-12.05.01-12.05h13.98s-.01,12.06-.01,12.06h16.91s-.01,13.28-.01,13.28h-16.91s0,5.86,0,5.86l20.86.02v13.27s-20.87-.02-20.87-.02v5.57s19.14.02,19.14.02l-.02,24.91c0,5.37-.72,8.81-3.96,10.93-3.24,2.02-7.09,2.22-11.85,2.12-.3-3.54-1.82-8.71-3.33-12.16l-.02,19.44h-13.98s.03-32.22.03-32.22h-5.57s-.02,24.3-.02,24.3h-13.06s.03-37.38.03-37.38l18.63.02v-5.57s-22.17-.02-22.17-.02v-13.27s8.01,0,8.01,0c-3.24-1.52-7.59-3.25-10.22-4.16,3.96-6.38,7.2-16.7,8.83-26.22l13.47,2.75ZM705.38,71.52h-8.51c-.81,2.12-1.73,4.14-2.54,5.86h11.04s0-5.86,0-5.86ZM724.17,121.97c.81,0,1.11-.2,1.11-1.11v-11.54s-5.97,0-5.97,0v12.56s4.85.11,4.85.11ZM756.84,53.33l-.05,57.93h-13.67s.05-57.94.05-57.94h13.67ZM775.58,47.58l-.07,77.57c0,7.39-1.33,11.24-5.38,13.67-4.15,2.33-10.23,2.83-18.23,2.82-.5-4.05-2.52-10.54-4.34-14.69,4.86.21,9.92.21,11.65.21,1.62,0,2.23-.5,2.23-2.12l.06-77.47h14.08Z"/>
      <path class="cls-2" d="M821.19,123.27c0-6.48,4.57-11.44,10.85-11.43,6.28,0,10.93,4.97,10.93,11.45,0,6.28-4.67,11.34-10.95,11.33-6.28,0-10.83-5.07-10.83-11.35ZM821.22,87.11c0-6.48,4.57-11.44,10.85-11.43,6.28,0,10.93,4.97,10.93,11.45,0,6.28-4.67,11.24-10.95,11.23-6.28,0-10.83-4.97-10.83-11.25Z"/>
      <path class="cls-2" d="M40.69,165.86c6.48,3.95,15.49,10.24,20.04,15.01l-5.57,4.05,31.6.03v14.38s-32.82-.03-32.82-.03v14.99s27.63.02,27.63.02v14.18s-27.66-.02-27.66-.02v16.61s37.76.03,37.76.03v14.48s-91.66-.08-91.66-.08v-14.48s37.58.03,37.58.03v-16.61s-27.63-.02-27.63-.02v-14.18s27.66.02,27.66.02v-14.99s-33.41-.03-33.41-.03v-14.38s37.79.03,37.79.03c-4.15-3.65-9.21-7.5-13.56-10.44l12.26-8.6Z"/>
      <path class="cls-2" d="M178.12,168.4l-.12,20.56,20.05.02s-.11,4.56-.11,6.28c-.84,41.01-1.57,56.2-4.81,60.96-2.54,3.85-5.07,5.06-8.61,5.87-3.24.71-7.9.7-12.76.6-.3-4.05-1.92-10.03-4.24-13.98,4.05.41,7.49.41,9.52.41,1.52,0,2.43-.4,3.44-1.82,1.93-2.63,2.75-14.48,3.28-44.86h-6.18c-1.44,27.34-6.02,47.69-22.64,61.14-1.31-2.43-3.94-5.47-6.47-8.01-15.39,1.51-31.19,2.91-43.04,3.91l-1.61-12.15,19.85-1.2v-4.35s-17.01-.01-17.01-.01v-10.23s17.02.01,17.02.01v-2.63s-16.61-.01-16.61-.01l.03-32.2h16.61s0-2.52,0-2.52l-19.04-.02v-10.43s19.05.02,19.05.02v-2.43c-5.47.3-10.94.5-16.1.59-.4-2.94-1.82-7.5-3.13-10.33,15.19-.7,32.31-2.4,43.85-4.82l6.17,10.84c-5.27,1.11-11.24,1.92-17.52,2.62v3.54s18.33.02,18.33.02v10.43s-18.34-.02-18.34-.02v2.53s17.01.01,17.01.01l-.03,32.2h-17.01s0,2.62,0,2.62h17.62s0,10.24,0,10.24h-17.62s0,3.43,0,3.43l16.1-1.2,1.52-2.23c6.39-10.12,8.43-23.08,9.15-39.39h-8s.01-13.48.01-13.48h8.3s.02-20.55.02-20.55h14.08ZM118.62,220h5.06s0-3.03,0-3.03h-5.06s0,3.03,0,3.03ZM118.63,208.66h5.06s0-3.03,0-3.03h-5.06s0,3.03,0,3.03ZM136.96,220.02h4.96s0-3.03,0-3.03h-4.96s0,3.03,0,3.03ZM136.96,208.67h4.96s0-3.03,0-3.03h-4.96s0,3.03,0,3.03Z"/>
      <path class="cls-2" d="M211.89,233.45c2.03-1.21,3.75-3.34,3.75-7.49l.04-48.71h14.48s-.04,48.62-.04,48.62l8-2.22.05-55.6h14.58s-.03,37.69-.03,37.69c7.1-9.62,11.16-24.09,13.2-39.28l15.19,2.44c-.92,5.47-1.93,10.83-3.35,16l28.86.02v13.87s-5.08,0-5.08,0c-2.54,14.48-6.4,26.93-12.18,37.26,5.06,5.88,11.03,10.74,18.02,14.19-3.24,2.73-7.81,8.3-10.04,12.14-6.38-3.75-11.84-8.52-16.5-14.09-5.07,5.97-11.25,10.93-18.55,14.97-1.72-3.04-6.47-9.22-9.41-12.06,8-3.84,14.49-8.9,19.46-15.28-3.24-5.67-5.96-12.06-8.29-18.74-1.12,1.52-2.33,3.04-3.55,4.45-1.52-2.53-4.86-7.19-7.79-10.54l-.04,51.75h-14.58s.02-25.03.02-25.03c-14.79,5.05-18.34,7.07-20.87,9.1-.81-3.75-3.23-10.33-5.36-13.47ZM272.17,202.1c2.02,7.29,4.75,14.18,8.08,20.46,3.04-6.88,5.28-14.88,6.7-23.79h-13.47s-1.32,3.33-1.32,3.33Z"/>
      <path class="cls-2" d="M396.86,170.92c-3.35,5.36-6.69,10.53-9.73,14.47l23.29.02v12.86s-26.44-.02-26.44-.02c9.31,3.25,21.26,7.82,27.94,11.06l-8.52,11.54-2.94-1.52-.02,27.44h10.73s-.01,12.87-.01,12.87l-93.07-.08v-12.86s10.85,0,10.85,0l.02-26.13-2.74,1.21c-1.92-3.55-5.36-9.12-8.29-12.26,9.12-2.32,21.27-7.07,28.67-11.32l-27.44-.02v-12.86s22.7.02,22.7.02c-2.12-4.25-5.36-9.42-8.19-13.38l12.66-5.56c4.05,4.97,8.29,11.55,10.42,16.01l-5.77,2.93,27.85.02-5.77-1.93c3.04-4.66,6.8-11.64,8.72-16.91l15.09,4.37ZM378.71,198.24l-28.66-.02,8.7,6.18c-6.48,4.45-16.21,9.81-24.92,13.96l64.81.05c-7.49-3.65-18.63-8.32-26.73-11.36l6.79-8.81ZM347.89,246.73v-16.1s-5.96,0-5.96,0v16.1s5.96,0,5.96,0ZM367.23,246.74v-16.1s-5.96,0-5.96,0v16.1s5.96,0,5.96,0ZM386.78,246.76v-16.1s-6.16,0-6.16,0v16.1s6.16,0,6.16,0Z"/>
      <path class="cls-2" d="M504.82,169.79l-.02,21.47c0,2.94.2,4.25,1.72,4.25.91,0,3.04,0,4.15,0,1.72,0,4.46-.3,5.98-.81.2,3.65.5,8.71,1,12.05-1.72.81-4.36.91-6.79.91-1.52,0-4.15,0-5.87,0-11.75,0-14.07-5.08-14.06-16.62v-7.7s-10.53,0-10.53,0c-.41,9.92-4.07,20.35-17.54,26.42-1.72-2.84-6.98-8.61-9.71-10.74l.2-.1h-3.85s-.01,12.25-.01,12.25l6.28-1.41,1.81,13.47-8.1,2.02-.02,21.88c0,6.68-1.12,10.23-4.97,12.35-3.85,2.22-9.12,2.62-16.41,2.62-.4-3.75-2.22-9.62-3.94-13.27,3.54.1,7.7.11,9.01.11,1.42,0,1.92-.5,1.93-1.92l.02-18.13-8.81,2.12-3.63-14.08,12.46-2.52v-15.49s-11.13,0-11.13,0v-13.57s11.15,0,11.15,0l.02-18.63h14.38s-.02,18.65-.02,18.65h9.62s0,10.64,0,10.64c6.89-4.55,7.71-10.02,7.71-15.39v-10.84s37.99.03,37.99.03ZM502.16,210.3l2.53-.5,9.52,3.86c-3.45,12.45-8.93,22.07-16.23,29.46,6.38,2.84,13.57,4.97,21.57,6.4-3.14,3.24-7.3,9.61-9.23,13.66-9.72-2.24-18.02-5.69-25.21-10.15-7.6,4.35-16.41,7.48-26.34,9.8-1.31-3.95-4.45-10.13-7.08-13.37,7.9-1.31,14.99-3.33,21.17-6.26-4.86-4.97-9-10.74-12.54-17.33l5.57-1.92h-7.19s.01-13.68.01-13.68l43.45.04ZM474.7,223.95c2.73,4.26,6.27,8.11,10.52,11.45,3.75-3.24,6.99-7.08,9.53-11.44l-20.05-.02Z"/>
      <path class="cls-2" d="M591.15,245.41l-27.04-.02,9.21,4.16c-8.41,5.66-21.68,10.92-32.12,13.85-2.63-2.94-7.69-8.21-10.93-10.74,9.01-1.51,18.84-4.24,25.73-7.27h-12.46s.04-41.53.04-41.53l21.98.02c-1.42-2.63-3.44-5.78-5.26-7.7l.3,2.23c-8.61,2.52-17.83,4.95-25.43,6.97l-5.46-12.76c7.6-1.21,18.74-3.53,29.58-5.75l1.01,8.91c15.4-2.42,20.67-6.36,22.9-12.44h-5.37c-2.23,2.73-4.76,5.36-7.7,7.79-2.63-2.53-7.59-5.58-11.03-6.9,7.3-4.96,12.16-11.54,14.9-17.41l12.86,2.14-2.23,4.25,27.34.02,2.13-.4,9.62,2.34c-2.54,5.67-6.09,11.95-9.23,15.89l-11.34-3.25c.91-1.21,1.93-2.83,2.84-4.45h-8.41c2.12,5.77,7.89,10.23,28.14,12.27-2.74,2.93-5.88,8.5-7.2,12.15l-5.77-1.12-.03,38.79h-14.99c9.52,3.84,20.15,8.31,26.42,11.55l-17.42,6.37c-5.26-3.45-15.39-8.62-25.21-12.58l9.62-5.36ZM540.27,167.9c6.58,1.52,16.4,4.67,21.57,7.01l-6.69,11.03c-4.66-2.43-14.38-6.09-21.26-8.12l6.39-9.92ZM557.73,236.98l40.1.03v-2.94s-40.1-.03-40.1-.03v2.94ZM557.74,226.04l40.1.03v-2.84s-40.1-.03-40.1-.03v2.84ZM557.75,215.21l40.1.03v-2.84s-40.1-.03-40.1-.03v2.84ZM575.69,203.88l27.95.02c-5.97-2.44-10.02-5.48-12.75-8.92-3.24,3.64-8.01,6.58-15.2,8.9Z"/>
      <path class="cls-2" d="M666.56,165.67c1.31,3.34,2.93,7.5,4.04,10.94h13.57s-.01,11.86-.01,11.86h-11.34s7.7,1.42,7.7,1.42l-4.26,9.52h9.22s-.01,11.96-.01,11.96h-16.41s0,5.66,0,5.66h16.1s-.01,12.27-.01,12.27h-10.13c4.15,4.05,7.89,8.4,10.12,11.85l-9.43,8.2c-1.52-2.63-3.84-5.88-6.68-9.12l-.02,21.98h-13.77s.02-18.54.02-18.54c-3.45,5.16-7.2,9.82-10.95,13.36-2.43-2.23-7.59-6.18-10.63-8.01,6.08-4.86,11.56-12.04,15.31-19.74h-13.17s.01-12.27.01-12.27l19.44.02v-5.67s-18.63-.02-18.63-.02v-11.95s8.52,0,8.52,0c-.5-2.73-1.51-6.38-2.42-9.22l6.99-1.72h-11.65s.01-11.86.01-11.86h16s-2.32-7.38-2.32-7.38l14.79-3.53ZM658.33,197.47l-7.19,1.92h11.95c1.42-3.13,2.94-7.48,3.86-10.92h-11.34c1.11,3.03,2.22,6.58,2.73,9.01ZM721.65,167.24l11.03,10.85c-9.12,3.44-20.16,6.16-30.69,8.08v13.87s29.66.02,29.66.02v13.57s-8.52,0-8.52,0l-.04,49.02h-14.28s.04-49.03.04-49.03h-6.89s0,.7,0,.7c-.01,15.39-1.35,36.46-10.17,49.01-2.53-2.23-8.7-5.88-12.15-7.3,8.01-11.34,8.63-28.35,8.64-41.72l.03-37.77c12.05-2.12,25.02-5.55,33.33-9.29Z"/>
      <path class="cls-2" d="M816.04,167.62c0,9.11.29,17.82.69,26.03l20.56-2.41,1.51,13.57-12.76,1.61,10.73,5.98c-3.15,9.62-7.92,19.13-13.9,27.53,1.11,3.55,2.32,5.47,3.64,5.57,1.32.1,2.23-4.25,2.64-12.86,2.33,3.14,8.3,7.1,10.52,8.41-2.85,18.63-8.83,22.27-13.29,22.17-5.77-.31-10.23-4.16-13.66-11.25-4.05,4.05-8.51,7.49-13.17,10.22-2.43-3.34-6.88-7.6-10.62-10.24l3.85-2.02h-16.1s-.01,13.25-.01,13.25h-14.08s.01-13.28.01-13.28l-20.96-.02v-12.86s20.97.02,20.97.02v-3.85s-17.01-.01-17.01-.01l.03-38.28,48.91.04-.03,38.28h-17.82s0,3.83,0,3.83l20.15.02v10.33c4.04-2.83,7.79-6.17,11.14-9.92-1.71-7.9-3.02-17.42-3.93-28.46l-6.99.91-1.61-13.77,7.7-.91c-.5-8.51-.8-17.82-.99-27.65h13.87ZM768.44,169.4l-.02,22.58-23.9-.02.02-22.58,23.9.02ZM754.66,182.96h3.14s0-4.66,0-4.66h-3.14s0,4.66,0,4.66ZM757.56,222.56h5.98s0-3.54,0-3.54h-5.98s0,3.54,0,3.54ZM757.57,209.09h5.98s0-3.54,0-3.54h-5.98s0,3.54,0,3.54ZM795.38,169.43l-.02,22.58-23.9-.02.02-22.58,23.9.02ZM775.79,222.58h6.18s0-3.54,0-3.54h-6.18s0,3.54,0,3.54ZM775.8,209.11h6.18s0-3.54,0-3.54h-6.18s0,3.54,0,3.54ZM781.6,182.99h3.14s0-4.66,0-4.66h-3.14s0,4.66,0,4.66ZM819.24,221.6c2.64-4.86,4.77-10.02,6.39-15.19l-7.9,1.01c.4,5.17.9,9.93,1.51,14.18ZM828.9,168.24c3.54,5.37,7.58,12.46,9,17.22l-11.85,6.37c-1.31-4.76-4.85-12.36-8.29-17.93l11.14-5.66Z"/>
      <path class="cls-2" d="M918.02,170.85c-.81,1.92-1.62,3.95-2.64,5.87h14.18s2.43-.59,2.43-.59l9.62,4.77c-3.65,10.23-9.13,19.03-15.82,26.52,6.07,4.36,13.16,7.91,21.06,10.15-2.74,2.53-6.49,7.49-8.72,11.23l-.03,34.64h-14.28s0-3.05,0-3.05h-16.61s0,3.02,0,3.02h-13.67s.03-32.72.03-32.72l-1.22.5c-.91-1.72-2.33-3.95-3.84-5.98l-.02,18.84-25.72-.02v7.9s-10.54,0-10.54,0l.07-78.89,36.26.03-.02,17.82c6.69-6.37,12.27-14.98,15.62-23.89l13.87,3.86ZM865.61,231.57l.02-18.23h-2.84s-.02,18.23-.02,18.23h2.84ZM862.8,201.38h2.84s.01-15.8.01-15.8h-2.84s-.01,15.8-.01,15.8ZM874.44,213.34l-.02,18.23h3.14s.02-18.23.02-18.23h-3.14ZM877.6,185.6h-3.14s-.01,15.8-.01,15.8h3.14s.01-15.8.01-15.8ZM905.94,207.29c-2.12-2.53-4.05-5.07-5.77-7.7-2.03,2.23-4.16,4.25-6.18,6.07-1.21-1.42-3.34-3.65-5.46-5.68v17.82c6.17-2.73,12.14-6.27,17.41-10.52ZM927.49,225.34c-4.25-2.43-8.2-5.27-11.74-8.31-3.75,3.14-7.7,5.87-11.86,8.29l23.6.02ZM923.83,247.62v-9.52s-16.6-.01-16.6-.01v9.52s16.6.01,16.6.01ZM908.49,188.76l-.3.51c1.92,3.04,4.35,6.18,7.18,9.12,2.63-3.04,5.07-6.27,7.1-9.61h-13.98Z"/>
    </g>
    <g>
      <polygon class="cls-1" points="264.37 148.78 274.87 107.03 309.54 110.26 344.08 26.57 318.84 19.93 369.32 0 314.85 124.87 280.6 117.15 264.37 148.78"/>
      <polygon class="cls-4" points="314.85 124.87 363.25 36.45 371.97 45.17 369.32 0 314.85 124.87"/>
    </g>
  </g>
</svg>