<?xml version="1.0" encoding="UTF-8"?>
<svg id="_圖層_1" data-name="圖層 1" xmlns="http://www.w3.org/2000/svg" viewBox="0 0 669 72">
  <defs>
    <style>
      .cls-1 {
        fill: #fff;
      }
    </style>
  </defs>
  <path class="cls-1" d="M32.85,21.19v-6.44H8.85v-3.94h52.86v3.94h-24.62v6.44h19.25v23.81h7.69v3.94h-7.69v9.94c0,2.69-.62,4-2.62,4.69-1.94.69-5.37.69-10.81.69-.25-1.12-.88-2.87-1.56-4,4.25.12,8.25.06,9.37,0,1.12,0,1.5-.31,1.5-1.44v-9.87H18.16v15.37h-4.12v-15.37h-7.5v-3.94h7.5v-23.81h18.81ZM32.85,33.06v-8h-14.68v8h14.68ZM32.85,45v-8.25h-14.68v8.25h14.68ZM52.22,25.06h-15.12v8h15.12v-8ZM52.22,36.75h-15.12v8.25h15.12v-8.25Z"/>
  <path class="cls-1" d="M81.08,37.19c.94-.25,1.94-.69,3.06-1.87,1.44-1.44,5.31-6.56,8.06-10.44h-10.25v-3.56h12.93l.88-.38,3,1.44c-2.69,3.75-7.62,10.44-11.25,14.62h7.44l.75-.12,2.19.81c-.88,5.5-2.31,10.25-4.12,14.18,4.19,6.69,12.25,7.69,23.93,7.69,6.5,0,15.5-.31,21.74-.88-.62,1-1.19,3-1.44,4.19-5.75.31-13.56.5-20.37.5-12.75,0-20.62-1.25-25.62-8.19-2.31,4-5.12,7.12-8.37,9.31-.56-.94-2.06-2.44-2.94-3.06,6.12-3.94,10.69-10.94,12.68-21h-6.94c-1.62,0-3.19.38-3.69.88-.31-1.06-1.19-3.19-1.69-4.12ZM87.52,7.01c2.81,3.06,6.25,7.06,7.94,9.62l-3.19,2.25c-1.75-2.62-5.19-6.94-7.94-10l3.19-1.87ZM116.89,36.37v-6.37h-17.62v-3.62h17.62v-7.75h-9.5c-1.44,2.5-3,4.75-4.62,6.62-.75-.62-2.44-1.56-3.44-2,3.75-3.81,6.81-9.5,8.62-15.25l3.81.87c-.69,2.12-1.56,4.25-2.56,6.25h7.69v-7.94h3.94v7.94h15v3.5h-15v7.75h17.31v3.62h-17.31v6.37h13.12v17.56h-29.49v-17.56h12.43ZM108.45,50.43h21.37v-10.5h-21.37v10.5Z"/>
  <path class="cls-1" d="M180.24,7.26v29.18c0,8.62-2.31,21.43-17.37,28.43-.69-1-2-2.31-3-3.19,8.06-3.31,12.18-8.87,14.25-14.25l-15.81,3.06-.88-4.12c4.56-.69,11.19-1.81,17.93-3,.56-2.62.75-5.06.75-6.94v-1.94h-16.18v-3.87h16.18v-10h-17.18v-4h17.18V7.26h4.12ZM194.36,7.26v9.44h18.25v3.94h-18.25v10.06h17v3.81h-17v10.37h19.31v4h-19.31v15.31h-4.12V7.26h4.12Z"/>
  <path class="cls-1" d="M244.66,6.94v12.75h8.06v3.94h-8.06v12.87l6.12-1.81.62,3.81-6.75,2.06v18.12c0,2.44-.56,3.62-2.12,4.25-1.56.69-4.12.81-8.44.81-.12-1.12-.69-2.81-1.25-3.94,3,.12,5.75.06,6.5.06.87,0,1.25-.31,1.25-1.19v-16.87l-8.25,2.5-1.25-4.06,9.5-2.62v-14h-8.75v-3.94h8.75V6.94h4.06ZM280.65,34.62l.81-.19,2.75,1.25c-2.62,7.5-7.06,13.37-12.56,17.93,4.87,3.19,10.62,5.5,17.06,6.81-1,.94-2.12,2.69-2.75,3.81-6.81-1.62-12.81-4.31-17.81-8-5.62,3.81-12.06,6.37-18.68,8.06-.38-1.12-1.31-2.87-2.12-3.81,6.19-1.31,12.25-3.62,17.5-6.94-4.5-4.06-8.06-9.06-10.62-14.87l.38-.12h-2.19v-3.94h28.24ZM278.03,9.26v14.62c0,1.75.19,2.31,1.19,2.31h5.12c.88,0,2.25-.06,3.06-.25.06,1.06.19,2.69.38,3.62-.81.25-2.12.31-3.37.31h-5.44c-4.06,0-4.94-1.62-4.94-6.12v-10.62h-11.43v3.12c0,5.56-1.69,12.25-9.31,16.62-.5-.81-2-2.37-2.81-3,7-4,8.12-9.25,8.12-13.75v-6.87h19.43ZM258.35,38.56c2.31,4.81,5.69,9.06,9.94,12.56,4.31-3.37,7.87-7.56,10.25-12.56h-20.18Z"/>
  <path class="cls-1" d="M319.58,7.69c-.62,1.56-1.31,3.12-2.06,4.62h16.87v3.62h-11.75c1,2.06,1.87,4.31,2.25,5.87l-3.75,1.31c-.37-1.87-1.5-4.75-2.69-7.19h-2.94c-1.81,3-3.81,5.75-5.87,7.81-.75-.62-2.5-1.81-3.5-2.37,3.87-3.62,7.37-9.12,9.44-14.75l4,1.06ZM344.01,7.63c-.56,1.62-1.25,3.19-2.06,4.69h20.93v3.62h-13.87c1.56,2.06,2.94,4.31,3.62,6l-3.62,1.56c-.75-2.06-2.56-5.06-4.5-7.56h-4.62c-1.19,1.94-2.56,3.69-3.94,5.19h1.25v4.5h20.43v3.56h-20.43v6h26.37v3.69h-13.56v5.87h11.93v3.69h-11.93v10.62c0,2.56-.56,3.75-2.62,4.44-2,.62-5.5.62-10.75.62-.25-1.19-.94-2.81-1.56-3.94,4.44.12,8.12.12,9.31,0,1.12,0,1.37-.31,1.37-1.19v-10.56h-36.87v-3.69h36.87v-5.87h-38.87v-3.69h25.99v-6h-19.81v-3.56h19.81v-4l-2-1.37c3.87-3.25,7.25-8.25,9.12-13.62l4,1ZM321.02,48.81c4.12,2.5,8.81,6.44,10.94,9.37l-3.19,2.69c-2.12-2.94-6.62-7-10.81-9.69l3.06-2.37Z"/>
  <path class="cls-1" d="M399.62,8.26c-1.75,4.44-3.87,8.87-6.31,13v42.8h-4.06V27.63c-2.19,3.12-4.5,5.94-6.87,8.37-.44-.94-1.62-3.06-2.37-4,6.25-6.06,12.12-15.43,15.68-24.93l3.94,1.19ZM415.12,55.99c-3.75,3.19-9.87,6.31-14.87,8.19-.69-.81-2.37-2.25-3.37-3,5.19-1.56,10.94-4.06,14.25-6.69l4,1.5ZM420.37,7.01v3.5h16.43v2.94h-16.43v3.37h14.75v2.87h-14.75v3.56h18.37v3.19h-41.05v-3.19h18.56v-3.56h-14.18v-2.87h14.18v-3.37h-15.81v-2.94h15.81v-3.5h4.12ZM434.61,29.69v23.56h-31.93v-23.56h31.93ZM406.74,36.69h23.74v-4h-23.74v4ZM406.74,43.5h23.74v-4.12h-23.74v4.12ZM406.74,50.31h23.74v-4.19h-23.74v4.19ZM426.18,54.18c4.56,2.5,9.75,5.75,12.5,8l-3.75,2.37c-2.69-2.31-8.06-6.06-12.43-8.5l3.69-1.87Z"/>
  <path class="cls-1" d="M482.04,18.38c-1.12,3.25-2.5,7-3.69,9.75h8.12v3.62h-12.31v6.56h12.12v3.69h-10.75c3.75,3.87,7.5,8.56,9.44,11.75l-2.87,2.37c-1.69-2.87-4.75-6.94-7.94-10.5v18.31h-4v-17.87c-3.19,5.44-7.31,10.25-11.43,13.81-.69-.62-2.31-1.87-3.25-2.44,5-3.75,9.62-9.37,12.68-15.43h-10.94v-3.69h12.93v-6.56h-13.37v-3.62h17.68c1.31-3,2.87-7.56,3.69-10.56l3.87.81ZM472.04,6.38c1.19,2.19,2.5,5.06,3.25,7.19h10.37v3.56h-27.49v-3.56h12.43c-.69-2-1.75-4.31-2.69-6.19l4.12-1ZM465.91,17.57c1.31,2.87,2.44,6.62,2.75,9.06l-3.75,1c-.31-2.44-1.31-6.31-2.56-9.25l3.56-.81ZM509.34,8.13l3.37,3.12c-5.31,1.87-12.87,3.5-19.75,4.5v12.37h20.81v3.87h-7.25v31.93h-4v-31.93h-9.56v2.62c0,9-.81,21.18-6.69,29.37-.75-.75-2.37-1.87-3.37-2.31,5.62-7.69,6.19-18.62,6.19-27.06V12.94c7.25-1.12,15.56-2.94,20.25-4.81Z"/>
  <path class="cls-1" d="M534.08,25.31c3.69,1.75,8.44,4.44,10.87,6.5l-2.62,3.31c-2.25-2.06-6.94-5-10.68-6.94l2.44-2.87ZM543.08,40.69l3.37,2.5c-2.81,6.37-6.62,13.87-9.81,19.5l-3.75-2.56c2.94-4.69,7.12-12.62,10.19-19.43ZM537.39,8.51c3.5,2.12,7.94,5.31,10.06,7.5l-2.87,2.94c-2.12-2.25-6.37-5.56-9.94-7.81l2.75-2.62ZM548.83,61.37c.88-.75,2.12-2.25,2.12-5V13.88h15.12c-.75-2.06-1.87-4.44-2.94-6.37l3.81-1.06c1.44,2.25,2.81,5.25,3.56,7.44h12.25v25.74h-14c1.12,3.25,2.62,6.25,4.5,8.87,3.25-1.94,7.19-4.75,9.62-6.94l2.81,2.75c-2.94,2.5-6.87,5.06-10.19,7,3.5,4,7.94,7.06,13.18,8.81-.94.81-2.19,2.44-2.75,3.62-10.43-4-17.5-12.62-21.24-24.12h-9.56v18.75l11.93-3.81c.06,1.19.31,2.87.56,3.81-13.37,4.56-15.31,5.31-16.56,6.25-.38-.94-1.5-2.56-2.25-3.25ZM578.7,17.63h-23.56v7.25h23.56v-7.25ZM555.14,28.5v7.44h23.56v-7.44h-23.56Z"/>
  <path class="cls-1" d="M608.56,24.94c3.19,1.75,7.31,4.44,9.37,6.37l-2.62,3.06c-1.94-1.94-6-4.81-9.31-6.75l2.56-2.69ZM615.62,40.5l3.31,2.19c-2.12,6.81-5.19,14.93-7.75,20.93l-3.75-2.19c2.44-5.06,5.87-13.62,8.19-20.93ZM610.81,8.01c3.25,1.94,7.31,4.87,9.25,6.94l-2.81,2.87c-1.94-2.06-5.87-5.19-9.12-7.25l2.69-2.56ZM633.68,7.01v7.06h9v3.75h-9v5.44h7.44v20h-7.44v5.56h9.19v3.75h-9.19v11.62h-3.94v-11.62h-9.94v-3.75h9.94v-5.56h-7.37v-20h7.37v-5.44h-8.69v-3.75h8.69v-7.06h3.94ZM625.93,31.69h11.56v-5.25h-11.56v5.25ZM625.93,40.12h11.56v-5.37h-11.56v5.37ZM661.8,9.32v49.55c0,2.37-.44,3.75-2,4.44-1.56.62-4.12.75-8.12.75-.19-1.06-.69-2.94-1.25-4.06,3,.12,5.69.06,6.44.06.88-.06,1.19-.31,1.19-1.25v-16.12h-9c-.62,7.56-2.31,15.75-6.75,21.56-.62-.62-2.19-1.81-3.12-2.25,5.87-7.75,6.37-18.93,6.37-27.81V9.32h16.25ZM649.36,27.81v6.37l-.06,4.69h8.75v-11.06h-8.69ZM649.36,13.13v10.87h8.69v-10.87h-8.69Z"/>
</svg>